<svg class="service-icon" data-name="service" xmlns="http://www.w3.org/2000/svg" viewBox="0 0 15 15"><path class="cls-1" d="M11.91 9.53c-.25 0-.45-.2-.45-.45v-3.5c0-.17.1-.33.25-.4 1.43-.7 1.36-2 1.35-2.01 0-.92-.49-1.46-.9-1.75v1.87c0 .16-.09.32-.23.39l-.99.53c-.14.07-.3.07-.43 0L9.44 3.6a.454.454 0 0 1-.23-.39V1.46c-.84.63-.76 1.62-.75 1.67 0 1.48 1.36 2.13 1.42 2.16.16.07.26.23.26.41v2.06c0 .25-.2.45-.45.45s-.45-.2-.45-.45v-1.8c-.53-.32-1.68-1.2-1.68-2.79C7.48 2.47 7.79.91 9.5.3c.14-.05.29-.03.41.06.12.08.19.22.19.37v2.22l.63.36.54-.29V.69c0-.14.07-.27.18-.36.11-.08.26-.11.39-.07.73.22 2.12 1.1 2.12 2.87 0 .04.1 1.72-1.6 2.71v3.23c0 .25-.2.45-.45.45z"/><path class="cls-1" d="M8.82 14.75c-.19 0-1.18-.04-2.13-.83l-.06-.06-.17-.21-1.65.03c-.13 0-.24-.04-.32-.13a.422.422 0 0 1-.13-.32V9.14c0-.25.2-.45.45-.45h1.34c.25-.54.91-1.61 2.26-1.94.03 0 .07-.01.11-.01H9.7c.25 0 .45.2.45.45v1.42h2.69c.49.02 1.17.4 1.17 1.33 0 .02.07 1.28-.83 3.85 0 .03-.02.05-.04.08-.05.09-.53.87-1.26.87H8.83zM7.3 13.26c.75.61 1.5.59 1.54.59h3.03c.15 0 .37-.24.47-.4.81-2.34.76-3.47.76-3.49 0-.41-.23-.45-.3-.46H9.69c-.25 0-.45-.2-.45-.45V7.63h-.68c-1.27.34-1.69 1.62-1.69 1.64-.06.19-.23.31-.43.31h-1.2v3.18l1.42-.03c.15 0 .27.06.36.17l.28.35z"/><path class="cls-1" d="M4.8 14.09H1.45c-.25 0-.45-.2-.45-.45V8.76c0-.25.2-.45.45-.45h3.36c.25 0 .45.2.45.45v4.88c0 .25-.2.45-.45.45zm-2.91-.89h2.46V9.22H1.89v3.98z"/></svg>